<svg id="Layer_1" data-name="Layer 1" xmlns="http://www.w3.org/2000/svg" viewBox="0 0 65.74 65.74"><defs><style>.cls-1{fill:#231f20;}.cls-2{fill:#fff;}.cls-3{fill:#c1766b;}</style></defs><title>portfolio-icon</title><path class="cls-1" d="M3.52,3.53,62.21,62.21a11.93,11.93,0,0,1-8.47,3.53H12a12,12,0,0,1-12-12V12A12,12,0,0,1,3.52,3.53Z"/><path class="cls-2" d="M5,3.56A10.88,10.88,0,0,1,12,1H53.74a11,11,0,0,1,11,11V53.74a10.94,10.94,0,0,1-2.56,7Z"/><path class="cls-3" d="M53.74,2a10,10,0,0,1,10,10V53.74a9.89,9.89,0,0,1-1.67,5.5L6.49,3.66A9.94,9.94,0,0,1,12,2H53.74m0-2H12A12,12,0,0,0,3.52,3.52L62.21,62.21a11.93,11.93,0,0,0,3.53-8.47V12a12,12,0,0,0-12-12Z"/><path class="cls-2" d="M37.68,52.8,30.26,31.68,49.55,51l.65,1.84Zm-21.32,0,8.31-23.69L33,52.8Z"/><path class="cls-3" d="M24.67,32.13l6.9,19.67H17.77l6.9-19.67m8,3.36,16,16,.1.29H38.39L32.66,35.49m-8-9.41L15,53.8H34.39L24.67,26.08Zm3.19,1.79L37,53.8H51.61l-1.2-3.39L27.86,27.87Z"/><polygon class="cls-1" points="27.86 27.86 25.93 22.36 29.29 12.76 37.09 12.76 50.41 50.41 27.86 27.86"/></svg>